<mxfile host="app.diagrams.net" agent="Mozilla/5.0 (Windows NT 10.0; Win64; x64) AppleWebKit/537.36 (KHTML, like Gecko) Chrome/138.0.0.0 Safari/537.36 Edg/138.0.0.0" version="27.1.4">
  <diagram name="Page-1" id="xUquKF9vkXiIuXrGjRIH">
    <mxGraphModel dx="1613" dy="1106" grid="1" gridSize="10" guides="1" tooltips="1" connect="1" arrows="1" fold="1" page="1" pageScale="1" pageWidth="827" pageHeight="1169" math="0" shadow="0">
      <root>
        <mxCell id="0" />
        <mxCell id="1" parent="0" />
        <mxCell id="uCYowMS8fDQMFeNvsx60-1" value="SAFE" style="rounded=1;arcSize=20;strokeWidth=2" vertex="1" parent="1">
          <mxGeometry x="418" y="322" width="100" height="54" as="geometry" />
        </mxCell>
        <mxCell id="uCYowMS8fDQMFeNvsx60-2" value="IDLE" style="rounded=1;arcSize=20;strokeWidth=2" vertex="1" parent="1">
          <mxGeometry x="348" y="466" width="61" height="54" as="geometry" />
        </mxCell>
        <mxCell id="uCYowMS8fDQMFeNvsx60-3" value="Boot" style="ellipse;shape=doubleEllipse;aspect=fixed;strokeWidth=2;whiteSpace=wrap;" vertex="1" parent="1">
          <mxGeometry x="338" y="70" width="58" height="58" as="geometry" />
        </mxCell>
        <mxCell id="uCYowMS8fDQMFeNvsx60-4" value="INITIALISE" style="rounded=1;arcSize=20;strokeWidth=2" vertex="1" parent="1">
          <mxGeometry x="208.5" y="195" width="99.5" height="54" as="geometry" />
        </mxCell>
        <mxCell id="uCYowMS8fDQMFeNvsx60-5" value="CALIBRATE" style="rounded=1;arcSize=20;strokeWidth=2" vertex="1" parent="1">
          <mxGeometry x="418" y="195" width="98.5" height="54" as="geometry" />
        </mxCell>
        <mxCell id="uCYowMS8fDQMFeNvsx60-6" value="CHARGE_INIT" style="rounded=1;arcSize=20;strokeWidth=2" vertex="1" parent="1">
          <mxGeometry x="495" y="593" width="163" height="54" as="geometry" />
        </mxCell>
        <mxCell id="uCYowMS8fDQMFeNvsx60-7" value="CONNECT" style="rounded=1;arcSize=20;strokeWidth=2" vertex="1" parent="1">
          <mxGeometry x="138" y="593" width="120" height="54" as="geometry" />
        </mxCell>
        <mxCell id="uCYowMS8fDQMFeNvsx60-8" value="CHARGE_STOPPING" style="rounded=1;arcSize=20;strokeWidth=2" vertex="1" parent="1">
          <mxGeometry x="494" y="960" width="164" height="54" as="geometry" />
        </mxCell>
        <mxCell id="uCYowMS8fDQMFeNvsx60-9" value="PRECHARGE" style="rounded=1;arcSize=20;strokeWidth=2" vertex="1" parent="1">
          <mxGeometry x="138" y="720" width="120" height="54" as="geometry" />
        </mxCell>
        <mxCell id="uCYowMS8fDQMFeNvsx60-10" value="ENABLED" style="rounded=1;arcSize=20;strokeWidth=2" vertex="1" parent="1">
          <mxGeometry x="138" y="847" width="120" height="54" as="geometry" />
        </mxCell>
        <mxCell id="uCYowMS8fDQMFeNvsx60-11" value="DISCONNECT" style="rounded=1;arcSize=20;strokeWidth=2" vertex="1" parent="1">
          <mxGeometry x="208.5" y="322" width="99.5" height="54" as="geometry" />
        </mxCell>
        <mxCell id="uCYowMS8fDQMFeNvsx60-12" value="CHARGE_CONNECT" style="rounded=1;arcSize=20;strokeWidth=2" vertex="1" parent="1">
          <mxGeometry x="495" y="720" width="165" height="54" as="geometry" />
        </mxCell>
        <mxCell id="uCYowMS8fDQMFeNvsx60-13" value="CHARGE_ENABLED" style="rounded=1;arcSize=20;strokeWidth=2" vertex="1" parent="1">
          <mxGeometry x="495" y="847" width="163" height="54" as="geometry" />
        </mxCell>
        <mxCell id="uCYowMS8fDQMFeNvsx60-14" value="" style="curved=1;startArrow=none;endArrow=block;exitX=0.49;exitY=0.99;entryX=0.5;entryY=-0.01;rounded=0;" edge="1" parent="1" source="uCYowMS8fDQMFeNvsx60-3" target="uCYowMS8fDQMFeNvsx60-4">
          <mxGeometry relative="1" as="geometry">
            <Array as="points">
              <mxPoint x="368" y="160" />
              <mxPoint x="258" y="160" />
            </Array>
          </mxGeometry>
        </mxCell>
        <mxCell id="uCYowMS8fDQMFeNvsx60-15" value="Initialisation&#xa;complete" style="curved=1;startArrow=none;endArrow=block;exitX=1;exitY=0.5;entryX=0;entryY=0.5;rounded=0;exitDx=0;exitDy=0;entryDx=0;entryDy=0;" edge="1" parent="1" source="uCYowMS8fDQMFeNvsx60-4" target="uCYowMS8fDQMFeNvsx60-5">
          <mxGeometry x="-0.1475" y="2" relative="1" as="geometry">
            <Array as="points" />
            <mxPoint as="offset" />
          </mxGeometry>
        </mxCell>
        <mxCell id="uCYowMS8fDQMFeNvsx60-16" value="Contactors Open" style="curved=1;startArrow=none;endArrow=block;exitX=0.5;exitY=0.99;entryX=0.5;entryY=-0.01;rounded=0;" edge="1" parent="1" source="uCYowMS8fDQMFeNvsx60-5" target="uCYowMS8fDQMFeNvsx60-1">
          <mxGeometry x="-0.074" relative="1" as="geometry">
            <Array as="points" />
            <mxPoint as="offset" />
          </mxGeometry>
        </mxCell>
        <mxCell id="uCYowMS8fDQMFeNvsx60-17" value="Faults Cleared &amp; Idle Command" style="curved=1;startArrow=none;endArrow=block;exitX=0.5;exitY=1;entryX=0.5;entryY=0;rounded=0;exitDx=0;exitDy=0;" edge="1" parent="1" source="uCYowMS8fDQMFeNvsx60-1" target="uCYowMS8fDQMFeNvsx60-2">
          <mxGeometry relative="1" as="geometry">
            <Array as="points">
              <mxPoint x="458" y="420" />
              <mxPoint x="378" y="420" />
            </Array>
          </mxGeometry>
        </mxCell>
        <mxCell id="uCYowMS8fDQMFeNvsx60-18" value="Idle Command" style="curved=1;startArrow=none;endArrow=block;exitX=1;exitY=0.5;entryX=1;entryY=0.58;rounded=0;exitDx=0;exitDy=0;" edge="1" parent="1" source="uCYowMS8fDQMFeNvsx60-6" target="uCYowMS8fDQMFeNvsx60-2">
          <mxGeometry x="-0.776" y="6" relative="1" as="geometry">
            <Array as="points">
              <mxPoint x="768" y="530" />
            </Array>
            <mxPoint y="1" as="offset" />
          </mxGeometry>
        </mxCell>
        <mxCell id="uCYowMS8fDQMFeNvsx60-19" value="Idle Command" style="curved=1;startArrow=none;endArrow=block;exitX=1;exitY=0.5;entryX=0.5;entryY=1;rounded=0;exitDx=0;exitDy=0;entryDx=0;entryDy=0;" edge="1" parent="1" source="uCYowMS8fDQMFeNvsx60-7" target="uCYowMS8fDQMFeNvsx60-2">
          <mxGeometry x="-0.5877" relative="1" as="geometry">
            <Array as="points">
              <mxPoint x="328" y="620" />
              <mxPoint x="378" y="580" />
            </Array>
            <mxPoint as="offset" />
          </mxGeometry>
        </mxCell>
        <mxCell id="uCYowMS8fDQMFeNvsx60-20" value="Contactors Open" style="curved=1;startArrow=none;endArrow=block;exitX=1;exitY=0.5;entryX=1;entryY=0.57;rounded=0;exitDx=0;exitDy=0;" edge="1" parent="1" source="uCYowMS8fDQMFeNvsx60-8" target="uCYowMS8fDQMFeNvsx60-2">
          <mxGeometry x="-0.2394" relative="1" as="geometry">
            <Array as="points">
              <mxPoint x="778" y="990" />
              <mxPoint x="768" y="730" />
              <mxPoint x="778" y="480" />
            </Array>
            <mxPoint as="offset" />
          </mxGeometry>
        </mxCell>
        <mxCell id="uCYowMS8fDQMFeNvsx60-21" value="Idle Command" style="curved=1;startArrow=none;endArrow=block;exitX=1;exitY=0.5;entryX=0.5;entryY=1;rounded=0;exitDx=0;exitDy=0;entryDx=0;entryDy=0;" edge="1" parent="1" source="uCYowMS8fDQMFeNvsx60-9" target="uCYowMS8fDQMFeNvsx60-2">
          <mxGeometry x="-0.7356" y="3" relative="1" as="geometry">
            <Array as="points">
              <mxPoint x="328" y="740" />
              <mxPoint x="378" y="670" />
            </Array>
            <mxPoint as="offset" />
          </mxGeometry>
        </mxCell>
        <mxCell id="uCYowMS8fDQMFeNvsx60-22" value="Idle Command" style="curved=1;startArrow=none;endArrow=block;exitX=1;exitY=0.5;entryX=0.5;entryY=1;rounded=0;exitDx=0;exitDy=0;" edge="1" parent="1" source="uCYowMS8fDQMFeNvsx60-10" target="uCYowMS8fDQMFeNvsx60-2">
          <mxGeometry x="-0.8348" y="6" relative="1" as="geometry">
            <Array as="points">
              <mxPoint x="379" y="880" />
            </Array>
            <mxPoint as="offset" />
          </mxGeometry>
        </mxCell>
        <mxCell id="uCYowMS8fDQMFeNvsx60-23" value="Charge Init Command" style="curved=1;startArrow=none;endArrow=block;exitX=0.75;exitY=1;entryX=0.5;entryY=0;rounded=0;entryDx=0;entryDy=0;exitDx=0;exitDy=0;" edge="1" parent="1" source="uCYowMS8fDQMFeNvsx60-2" target="uCYowMS8fDQMFeNvsx60-6">
          <mxGeometry x="-0.0883" relative="1" as="geometry">
            <Array as="points">
              <mxPoint x="418" y="540" />
              <mxPoint x="578" y="540" />
            </Array>
            <mxPoint as="offset" />
          </mxGeometry>
        </mxCell>
        <mxCell id="uCYowMS8fDQMFeNvsx60-24" value="Connect Command" style="curved=1;startArrow=none;endArrow=block;exitX=0.25;exitY=1;entryX=0.5;entryY=0;rounded=0;entryDx=0;entryDy=0;exitDx=0;exitDy=0;" edge="1" parent="1" source="uCYowMS8fDQMFeNvsx60-2" target="uCYowMS8fDQMFeNvsx60-7">
          <mxGeometry x="-0.1811" relative="1" as="geometry">
            <Array as="points">
              <mxPoint x="338" y="540" />
              <mxPoint x="198" y="540" />
            </Array>
            <mxPoint as="offset" />
          </mxGeometry>
        </mxCell>
        <mxCell id="uCYowMS8fDQMFeNvsx60-25" value="Fault" style="curved=1;startArrow=none;endArrow=block;exitX=0;exitY=0.5;entryX=0;entryY=0.5;rounded=0;exitDx=0;exitDy=0;entryDx=0;entryDy=0;" edge="1" parent="1" source="uCYowMS8fDQMFeNvsx60-7" target="uCYowMS8fDQMFeNvsx60-11">
          <mxGeometry x="-0.8742" relative="1" as="geometry">
            <Array as="points">
              <mxPoint x="98" y="620" />
              <mxPoint x="58" y="550" />
              <mxPoint x="128" y="350" />
            </Array>
            <mxPoint as="offset" />
          </mxGeometry>
        </mxCell>
        <mxCell id="uCYowMS8fDQMFeNvsx60-26" value="Fault" style="curved=1;startArrow=none;endArrow=block;exitX=0;exitY=0.5;entryX=0;entryY=0.5;rounded=0;exitDx=0;exitDy=0;entryDx=0;entryDy=0;" edge="1" parent="1" source="uCYowMS8fDQMFeNvsx60-9" target="uCYowMS8fDQMFeNvsx60-11">
          <mxGeometry x="-0.9136" y="-7" relative="1" as="geometry">
            <Array as="points">
              <mxPoint x="88" y="747" />
              <mxPoint x="58" y="550" />
              <mxPoint x="128" y="350" />
            </Array>
            <mxPoint as="offset" />
          </mxGeometry>
        </mxCell>
        <mxCell id="uCYowMS8fDQMFeNvsx60-27" value="Fault" style="curved=1;startArrow=none;endArrow=block;exitX=0;exitY=0.5;entryX=0;entryY=0.5;rounded=0;exitDx=0;exitDy=0;entryDx=0;entryDy=0;" edge="1" parent="1" source="uCYowMS8fDQMFeNvsx60-10" target="uCYowMS8fDQMFeNvsx60-11">
          <mxGeometry x="-0.9373" y="-1" relative="1" as="geometry">
            <Array as="points">
              <mxPoint x="58" y="880" />
              <mxPoint x="58" y="550" />
              <mxPoint x="128" y="350" />
            </Array>
            <mxPoint as="offset" />
          </mxGeometry>
        </mxCell>
        <mxCell id="uCYowMS8fDQMFeNvsx60-28" value="Fault" style="curved=1;startArrow=none;endArrow=none;exitX=0;exitY=0.5;rounded=0;exitDx=0;exitDy=0;startFill=0;" edge="1" parent="1" source="uCYowMS8fDQMFeNvsx60-6">
          <mxGeometry x="-0.9287" relative="1" as="geometry">
            <Array as="points">
              <mxPoint x="408" y="620" />
              <mxPoint x="378" y="920" />
            </Array>
            <mxPoint x="298" y="960" as="targetPoint" />
            <mxPoint as="offset" />
          </mxGeometry>
        </mxCell>
        <mxCell id="uCYowMS8fDQMFeNvsx60-29" value="" style="curved=1;startArrow=none;endArrow=none;exitX=0;exitY=0.5;rounded=0;exitDx=0;exitDy=0;startFill=0;" edge="1" parent="1" source="uCYowMS8fDQMFeNvsx60-12">
          <mxGeometry relative="1" as="geometry">
            <Array as="points">
              <mxPoint x="408" y="750" />
              <mxPoint x="408" y="900" />
            </Array>
            <mxPoint x="298" y="960" as="targetPoint" />
          </mxGeometry>
        </mxCell>
        <mxCell id="uCYowMS8fDQMFeNvsx60-39" value="Fault" style="edgeLabel;html=1;align=center;verticalAlign=middle;resizable=0;points=[];" vertex="1" connectable="0" parent="uCYowMS8fDQMFeNvsx60-29">
          <mxGeometry x="-0.3908" y="32" relative="1" as="geometry">
            <mxPoint x="38" y="-26" as="offset" />
          </mxGeometry>
        </mxCell>
        <mxCell id="uCYowMS8fDQMFeNvsx60-30" value="Fault" style="curved=1;startArrow=none;endArrow=none;exitX=0;exitY=0.5;rounded=0;exitDx=0;exitDy=0;startFill=0;" edge="1" parent="1" source="uCYowMS8fDQMFeNvsx60-13">
          <mxGeometry x="-0.8473" y="1" relative="1" as="geometry">
            <Array as="points">
              <mxPoint x="388" y="910" />
            </Array>
            <mxPoint x="298" y="960" as="targetPoint" />
            <mxPoint as="offset" />
          </mxGeometry>
        </mxCell>
        <mxCell id="uCYowMS8fDQMFeNvsx60-31" value="" style="curved=1;startArrow=none;endArrow=block;entryX=0;entryY=0.5;rounded=0;entryDx=0;entryDy=0;exitX=0;exitY=0;exitDx=0;exitDy=0;strokeWidth=2;" edge="1" parent="1" source="uCYowMS8fDQMFeNvsx60-46" target="uCYowMS8fDQMFeNvsx60-11">
          <mxGeometry x="-0.8334" y="5" relative="1" as="geometry">
            <Array as="points">
              <mxPoint x="238" y="990" />
              <mxPoint x="108" y="960" />
              <mxPoint x="48" y="830" />
              <mxPoint x="58" y="550" />
              <mxPoint x="128" y="350" />
            </Array>
            <mxPoint x="288.0760071744736" y="965.8685013840632" as="sourcePoint" />
            <mxPoint as="offset" />
          </mxGeometry>
        </mxCell>
        <mxCell id="uCYowMS8fDQMFeNvsx60-32" value="Time&#xa;Passed" style="curved=1;startArrow=none;endArrow=block;exitX=1;exitY=0.5;entryX=0;entryY=0.5;rounded=0;entryDx=0;entryDy=0;exitDx=0;exitDy=0;" edge="1" parent="1" source="uCYowMS8fDQMFeNvsx60-11" target="uCYowMS8fDQMFeNvsx60-1">
          <mxGeometry x="-0.0909" y="-1" relative="1" as="geometry">
            <Array as="points" />
            <mxPoint as="offset" />
          </mxGeometry>
        </mxCell>
        <mxCell id="uCYowMS8fDQMFeNvsx60-33" value="Charge Enable Command" style="curved=1;startArrow=none;endArrow=block;exitX=0.5;exitY=1;entryX=0.5;entryY=0;rounded=0;exitDx=0;exitDy=0;" edge="1" parent="1" source="uCYowMS8fDQMFeNvsx60-6" target="uCYowMS8fDQMFeNvsx60-12">
          <mxGeometry relative="1" as="geometry">
            <Array as="points" />
          </mxGeometry>
        </mxCell>
        <mxCell id="uCYowMS8fDQMFeNvsx60-34" value="Precharge Passes" style="curved=1;startArrow=none;endArrow=block;exitX=0.5;exitY=1;entryX=0.5;entryY=0;rounded=0;" edge="1" parent="1" source="uCYowMS8fDQMFeNvsx60-12" target="uCYowMS8fDQMFeNvsx60-13">
          <mxGeometry relative="1" as="geometry">
            <Array as="points" />
          </mxGeometry>
        </mxCell>
        <mxCell id="uCYowMS8fDQMFeNvsx60-35" value="Idle Command" style="curved=1;startArrow=none;endArrow=block;exitX=1;exitY=0.5;entryX=1;entryY=0;rounded=0;entryDx=0;entryDy=0;exitDx=0;exitDy=0;" edge="1" parent="1" source="uCYowMS8fDQMFeNvsx60-12" target="uCYowMS8fDQMFeNvsx60-8">
          <mxGeometry x="-0.0066" relative="1" as="geometry">
            <Array as="points">
              <mxPoint x="728" y="750" />
              <mxPoint x="728" y="920" />
            </Array>
            <mxPoint as="offset" />
          </mxGeometry>
        </mxCell>
        <mxCell id="uCYowMS8fDQMFeNvsx60-36" value="Idle Command" style="curved=1;startArrow=none;endArrow=block;exitX=0.5;exitY=1;entryX=0.5;entryY=0;rounded=0;entryDx=0;entryDy=0;exitDx=0;exitDy=0;" edge="1" parent="1" source="uCYowMS8fDQMFeNvsx60-13" target="uCYowMS8fDQMFeNvsx60-8">
          <mxGeometry x="-0.1727" y="-3" relative="1" as="geometry">
            <Array as="points">
              <mxPoint x="577" y="930" />
            </Array>
            <mxPoint as="offset" />
          </mxGeometry>
        </mxCell>
        <mxCell id="uCYowMS8fDQMFeNvsx60-37" value="Enable Command" style="curved=1;startArrow=none;endArrow=block;exitX=0.5;exitY=1;entryX=0.5;entryY=0;rounded=0;exitDx=0;exitDy=0;entryDx=0;entryDy=0;" edge="1" parent="1" source="uCYowMS8fDQMFeNvsx60-7" target="uCYowMS8fDQMFeNvsx60-9">
          <mxGeometry relative="1" as="geometry">
            <Array as="points" />
          </mxGeometry>
        </mxCell>
        <mxCell id="uCYowMS8fDQMFeNvsx60-38" value="Precharge Passes" style="curved=1;startArrow=none;endArrow=block;exitX=0.5;exitY=1;entryX=0.5;entryY=0;rounded=0;exitDx=0;exitDy=0;entryDx=0;entryDy=0;" edge="1" parent="1" source="uCYowMS8fDQMFeNvsx60-9" target="uCYowMS8fDQMFeNvsx60-10">
          <mxGeometry relative="1" as="geometry">
            <Array as="points" />
          </mxGeometry>
        </mxCell>
        <mxCell id="uCYowMS8fDQMFeNvsx60-42" value="Fault" style="curved=1;startArrow=none;endArrow=none;exitX=0;exitY=0.5;rounded=0;exitDx=0;exitDy=0;startFill=0;" edge="1" parent="1" source="uCYowMS8fDQMFeNvsx60-8">
          <mxGeometry x="-0.8658" y="-1" relative="1" as="geometry">
            <Array as="points">
              <mxPoint x="428" y="990" />
              <mxPoint x="368" y="920" />
            </Array>
            <mxPoint x="651" y="904" as="sourcePoint" />
            <mxPoint x="298" y="960" as="targetPoint" />
            <mxPoint as="offset" />
          </mxGeometry>
        </mxCell>
        <mxCell id="uCYowMS8fDQMFeNvsx60-46" value="" style="ellipse;whiteSpace=wrap;html=1;" vertex="1" parent="1">
          <mxGeometry x="298" y="960" as="geometry" />
        </mxCell>
      </root>
    </mxGraphModel>
  </diagram>
</mxfile>
